<?xml version="1.0" encoding="UTF-8"?>
<!-- Generator: https://ezgif.com/png-to-svg -->
<svg version="1.1" xmlns="http://www.w3.org/2000/svg" width="1080" height="1080">
<path d="M0 0 C1.42 -0 1.42 -0 2.88 -0.01 C3.93 -0.01 4.99 -0.01 6.07 -0.01 C7.74 -0.01 7.74 -0.01 9.44 -0.01 C13.2 -0.02 16.96 -0.02 20.72 -0.02 C23.4 -0.02 26.08 -0.02 28.76 -0.03 C35.31 -0.04 41.87 -0.04 48.42 -0.04 C53.76 -0.04 59.1 -0.04 64.43 -0.04 C79.58 -0.05 94.73 -0.06 109.88 -0.06 C111.11 -0.06 111.11 -0.06 112.36 -0.06 C113.59 -0.06 113.59 -0.06 114.84 -0.06 C128.06 -0.06 141.27 -0.07 154.49 -0.08 C168.08 -0.09 181.67 -0.1 195.25 -0.1 C202.87 -0.1 210.5 -0.1 218.12 -0.11 C224.62 -0.12 231.12 -0.12 237.62 -0.12 C240.93 -0.11 244.24 -0.12 247.55 -0.12 C291.99 -0.22 336.08 5.56 375.63 27.13 C376.53 27.61 376.53 27.61 377.44 28.1 C389.79 34.72 401.15 42.49 411.41 52.06 C413.41 53.92 415.47 55.68 417.57 57.44 C433.04 71.02 444.28 87.96 453.63 106.13 C454.18 107.19 454.18 107.19 454.74 108.28 C462.14 122.71 466.73 137.67 470.38 153.44 C470.58 154.3 470.78 155.16 470.98 156.04 C473.62 167.99 474.94 179.77 474.97 192 C474.97 193.27 474.98 194.55 474.99 195.87 C475 198.55 475 201.24 475 203.93 C475 206.63 475.01 209.33 475.04 212.03 C475.44 253.75 466.45 295.18 442.63 330.13 C441.74 331.45 441.74 331.45 440.83 332.8 C435.88 339.9 430.25 346.2 424.26 352.42 C423.17 353.56 422.09 354.71 421.01 355.86 C398.53 379.93 369.66 395.1 338.63 405.13 C337.56 405.48 337.56 405.48 336.47 405.84 C314.49 412.93 290.82 415.82 267.82 416.69 C266.71 416.73 265.59 416.77 264.43 416.81 C250.8 417.28 237.17 417.25 223.53 417.23 C221.05 417.22 218.58 417.22 216.1 417.22 C207.07 417.22 198.04 417.2 189.01 417.19 C168.75 417.17 148.5 417.15 127.63 417.13 C127.63 498.31 127.63 579.49 127.63 663.13 C94.99 663.16 94.99 663.16 61.69 663.19 C51.37 663.2 51.37 663.2 40.84 663.22 C32.46 663.22 32.46 663.22 28.55 663.22 C25.8 663.23 23.06 663.23 20.31 663.23 C16.16 663.24 12.01 663.24 7.86 663.24 C6.01 663.25 6.01 663.25 4.13 663.25 C3.02 663.25 1.91 663.25 0.76 663.25 C-0.21 663.25 -1.18 663.25 -2.18 663.25 C-4.37 663.13 -4.37 663.13 -5.37 662.13 C-5.47 660.68 -5.49 659.22 -5.49 657.77 C-5.5 656.82 -5.5 655.87 -5.5 654.89 C-5.5 653.83 -5.5 652.77 -5.5 651.69 C-5.5 650.57 -5.5 649.45 -5.5 648.3 C-5.5 644.51 -5.5 640.71 -5.5 636.92 C-5.5 634.19 -5.5 631.47 -5.5 628.74 C-5.5 622.79 -5.5 616.83 -5.5 610.88 C-5.5 602.02 -5.5 593.17 -5.5 584.32 C-5.51 568.51 -5.51 552.7 -5.5 536.89 C-5.5 523.05 -5.5 509.22 -5.5 495.38 C-5.5 494.46 -5.5 493.55 -5.5 492.6 C-5.5 488.89 -5.5 485.17 -5.5 481.45 C-5.51 446.53 -5.5 411.62 -5.5 376.71 C-5.49 345.66 -5.49 314.61 -5.5 283.56 C-5.5 248.71 -5.51 213.86 -5.5 179.01 C-5.5 175.3 -5.5 171.59 -5.5 167.88 C-5.5 166.96 -5.5 166.05 -5.5 165.11 C-5.5 151.28 -5.5 137.45 -5.51 123.62 C-5.51 107.9 -5.51 92.18 -5.5 76.46 C-5.5 67.66 -5.5 58.85 -5.5 50.04 C-5.51 44.17 -5.5 38.3 -5.5 32.43 C-5.5 29.08 -5.5 25.72 -5.5 22.37 C-5.5 18.77 -5.5 15.17 -5.5 11.57 C-5.5 10.51 -5.5 9.46 -5.5 8.37 C-5.5 7.42 -5.5 6.47 -5.49 5.49 C-5.49 4.67 -5.49 3.84 -5.49 2.99 C-5.25 -0.65 -3.15 0 0 0 Z M127.63 106.13 C127.63 173.78 127.63 241.43 127.63 311.13 C146.07 311.19 164.51 311.25 183.51 311.32 C189.27 311.34 195.04 311.37 200.98 311.4 C206.27 311.41 206.27 311.41 211.55 311.41 C213.86 311.42 216.17 311.43 218.48 311.45 C252.26 311.66 289.49 309.99 315.39 285.36 C316.13 284.63 316.87 283.89 317.63 283.13 C318.26 282.52 318.88 281.9 319.53 281.27 C340.84 258.76 342.42 226.07 341.76 196.86 C341.02 175.95 334.83 153.06 320.63 137.13 C319.97 137.13 319.31 137.13 318.63 137.13 C318.63 136.47 318.63 135.81 318.63 135.13 C317.97 135.13 317.31 135.13 316.63 135.13 C316.63 134.47 316.63 133.81 316.63 133.13 C302.93 118.62 282.25 109.44 262.42 108.3 C260.63 108.13 260.63 108.13 259.63 107.13 C257.92 107.02 256.21 106.98 254.5 106.97 C253.39 106.96 252.28 106.95 251.14 106.94 C249.9 106.94 248.67 106.93 247.4 106.92 C246.09 106.91 244.78 106.9 243.43 106.89 C239.88 106.87 236.33 106.84 232.78 106.82 C229.45 106.81 226.13 106.78 222.8 106.76 C213.05 106.69 203.31 106.63 193.57 106.57 C160.93 106.35 160.93 106.35 127.63 106.13 Z " fill="#FEFEFE" transform="translate(466.36919593811035,221.87136554718018)"/>
<path d="M0 0 C1.45 -0 1.45 -0 2.92 -0 C15.06 0.01 27.14 0.2 39.25 1.06 C40.36 1.14 41.48 1.22 42.63 1.3 C47.91 1.74 51.72 2.47 56.88 4.19 C56.88 41.81 56.88 79.43 56.88 118.19 C53.07 119.46 50.25 118.65 46.44 117.88 C5.92 110.39 -45.73 108.92 -81.12 133.19 C-88.5 138.61 -94.67 144.07 -99.12 152.19 C-99.5 152.8 -99.88 153.41 -100.26 154.04 C-108.33 168.16 -107.91 187.6 -104.1 202.94 C-101.29 212.31 -97.64 219.85 -91.12 227.19 C-90.38 228.03 -89.64 228.88 -88.88 229.75 C-80.19 237.45 -70.86 242.9 -60.12 247.19 C-59.35 247.5 -58.58 247.81 -57.78 248.12 C-38.24 255.71 -17.65 259.41 2.82 263.57 C11.58 265.35 20.32 267.15 29.07 268.96 C32.27 269.62 35.47 270.27 38.68 270.91 C40.64 271.32 42.6 271.72 44.56 272.12 C45.91 272.39 45.91 272.39 47.29 272.67 C48.53 272.92 48.53 272.92 49.79 273.19 C50.51 273.33 51.23 273.48 51.97 273.63 C53.88 274.19 53.88 274.19 56.88 276.19 C57.24 278.45 57.24 278.45 57.24 281.33 C57.24 282.96 57.24 282.96 57.25 284.62 C57.24 285.82 57.23 287.02 57.22 288.26 C57.22 289.51 57.22 290.77 57.22 292.07 C57.22 295.53 57.2 298.98 57.18 302.44 C57.16 306.05 57.16 309.66 57.16 313.27 C57.15 320.11 57.12 326.95 57.09 333.79 C57.06 341.57 57.04 349.36 57.03 357.14 C56.99 373.16 56.94 389.17 56.88 405.19 C52.59 404.6 48.54 403.92 44.4 402.66 C43.4 402.37 42.4 402.07 41.36 401.76 C40.34 401.45 39.31 401.13 38.25 400.81 C32.11 398.95 26 397.17 19.74 395.75 C18.61 395.49 17.47 395.23 16.3 394.97 C15.17 394.71 14.04 394.45 12.88 394.19 C10.87 393.72 8.87 393.26 6.86 392.8 C5.86 392.57 4.86 392.33 3.83 392.1 C2.8 391.86 1.76 391.61 0.69 391.37 C-0.43 391.11 -1.55 390.85 -2.71 390.58 C-12.62 388.28 -22.53 385.98 -32.44 383.67 C-38.91 382.17 -45.38 380.67 -51.85 379.18 C-97.93 368.6 -142.36 353.92 -179.02 322.93 C-181.21 321.06 -181.21 321.06 -184.12 319.19 C-184.12 318.53 -184.12 317.87 -184.12 317.19 C-184.78 317.19 -185.44 317.19 -186.12 317.19 C-186.12 316.53 -186.12 315.87 -186.12 315.19 C-186.78 315.19 -187.44 315.19 -188.12 315.19 C-189.46 313.89 -189.46 313.89 -191.06 312 C-191.68 311.27 -192.29 310.54 -192.93 309.79 C-193.65 308.93 -194.38 308.07 -195.12 307.19 C-196.02 306.16 -196.92 305.14 -197.82 304.11 C-203.34 297.79 -208.04 291.55 -212.12 284.19 C-212.68 283.3 -213.23 282.41 -213.79 281.5 C-222.28 267.71 -227.27 252.83 -231.12 237.19 C-231.57 235.4 -231.57 235.4 -232.03 233.57 C-240.29 197.93 -238.07 158.65 -226.12 124.19 C-225.76 123.06 -225.39 121.93 -225.02 120.77 C-219.77 105.76 -211.24 91.41 -201.12 79.19 C-200.69 78.65 -200.25 78.11 -199.8 77.56 C-194.24 70.77 -188.54 64.19 -182.12 58.19 C-181.54 57.63 -180.95 57.07 -180.35 56.5 C-132.3 12.62 -62.84 -0.06 0 0 Z " fill="#FCFCFC" transform="translate(389.125,215.8125)"/>
<path d="M0 0 C4.57 0.24 6.23 0.79 9.5 4.07 C11.73 7.06 13.65 10.24 15.57 13.44 C17.37 16.3 19.46 18.83 21.62 21.44 C22.67 22.71 22.67 22.71 23.74 24.01 C25.73 26.35 25.73 26.35 28.01 28.49 C29.75 30.31 29.75 30.31 29.75 32.31 C30.3 32.53 30.86 32.75 31.43 32.98 C34.46 34.72 36.57 37.1 38.94 39.62 C73.77 75.42 125.2 94.9 174.68 95.61 C177.27 95.63 179.86 95.63 182.45 95.63 C185.05 95.63 187.65 95.65 190.25 95.67 C201.46 95.71 212.19 94.68 223.22 92.7 C227.05 92.12 230.9 91.74 234.75 91.31 C234.75 129.59 234.75 167.87 234.75 207.31 C229.29 208.87 225.2 209.61 219.7 209.62 C218.92 209.63 218.14 209.64 217.35 209.64 C214.78 209.67 212.22 209.68 209.66 209.68 C207.84 209.69 206.02 209.7 204.19 209.71 C200.35 209.73 196.52 209.74 192.68 209.74 C188.83 209.74 184.98 209.76 181.13 209.8 C160.58 209.99 140.34 209.62 119.93 207.04 C119.12 206.93 118.31 206.83 117.47 206.73 C106.67 205.34 96.26 203.17 85.75 200.31 C84.68 200.02 83.61 199.74 82.5 199.44 C42.37 188.52 2.71 172.59 -29.25 145.31 C-30.43 144.32 -31.61 143.33 -32.79 142.33 C-34.05 141.26 -35.3 140.19 -36.56 139.12 C-37.15 138.63 -37.74 138.13 -38.34 137.61 C-41.8 134.65 -45.06 131.57 -48.25 128.31 C-48.81 127.77 -49.37 127.23 -49.95 126.68 C-59.32 117.65 -66.93 107.02 -74.25 96.31 C-74.86 95.45 -75.47 94.6 -76.1 93.71 C-77.55 90.68 -77.17 89.5 -76.25 86.31 C-74.99 84.36 -74.99 84.36 -73.41 82.49 C-72.53 81.45 -72.53 81.45 -71.64 80.39 C-71.02 79.66 -70.39 78.94 -69.75 78.19 C-68.46 76.66 -67.17 75.12 -65.88 73.59 C-65.25 72.85 -64.62 72.11 -63.98 71.35 C-61.85 68.84 -59.76 66.3 -57.69 63.75 C-56.99 62.9 -56.29 62.04 -55.57 61.16 C-53.28 58.35 -50.99 55.53 -48.71 52.72 C-41.86 44.28 -34.97 35.88 -28.05 27.5 C-26.19 25.24 -24.33 22.97 -22.46 20.71 C-21.84 19.95 -21.22 19.19 -20.58 18.41 C-19.4 16.98 -18.22 15.54 -17.04 14.11 C-15.97 12.8 -14.89 11.5 -13.81 10.2 C-12.76 8.93 -11.73 7.63 -10.73 6.31 C-7.52 2.22 -5.48 0.24 0 0 Z " fill="#FCFCFC" transform="translate(211.25,679.6875)"/>
<path d="M0 0 C3.6 0.88 5.54 1.42 7.88 4.38 C9 7 9 7 9 11 C8.34 11 7.68 11 7 11 C7 10.34 7 9.68 7 9 C6.01 8.67 5.02 8.34 4 8 C4 7.34 4 6.68 4 6 C2.68 5.34 1.36 4.68 0 4 C0 2.68 0 1.36 0 0 Z " fill="#B5B5B5" transform="translate(776,346)"/>
</svg>
